<mxfile host="Electron" agent="Mozilla/5.0 (X11; Linux x86_64) AppleWebKit/537.36 (KHTML, like Gecko) draw.io/28.1.2 Chrome/138.0.7204.243 Electron/37.4.0 Safari/537.36" version="28.1.2" pages="4">
  <diagram name="Gmail - Use Cases" id="sMMjURSvRcraKmAr_0x2">
    <mxGraphModel dx="706" dy="632" grid="1" gridSize="10" guides="1" tooltips="1" connect="1" arrows="1" fold="1" page="1" pageScale="1" pageWidth="850" pageHeight="1100" math="0" shadow="0">
      <root>
        <mxCell id="0" />
        <mxCell id="1" parent="0" />
        <mxCell id="c_KtkY77ZZmK-J9CgblS-4" value="" style="rounded=0;whiteSpace=wrap;html=1;" parent="1" vertex="1">
          <mxGeometry x="225" y="15" width="565" height="465" as="geometry" />
        </mxCell>
        <mxCell id="c_KtkY77ZZmK-J9CgblS-5" value="Reservation" style="text;html=1;align=center;verticalAlign=middle;whiteSpace=wrap;rounded=0;" parent="1" vertex="1">
          <mxGeometry x="422.5" y="20" width="170" height="30" as="geometry" />
        </mxCell>
        <mxCell id="c_KtkY77ZZmK-J9CgblS-6" value="Client" style="shape=umlActor;verticalLabelPosition=bottom;verticalAlign=top;html=1;outlineConnect=0;" parent="1" vertex="1">
          <mxGeometry x="100" y="220" width="30" height="60" as="geometry" />
        </mxCell>
        <mxCell id="c_KtkY77ZZmK-J9CgblS-27" value="&amp;lt;&amp;lt;exclude&amp;gt;&amp;gt;" style="html=1;verticalAlign=bottom;labelBackgroundColor=none;endArrow=open;endFill=0;dashed=1;rounded=0;entryX=0.5;entryY=0;entryDx=0;entryDy=0;exitX=0.5;exitY=1;exitDx=0;exitDy=0;" parent="1" edge="1">
          <mxGeometry width="160" relative="1" as="geometry">
            <mxPoint x="486" y="306.5" as="sourcePoint" />
            <mxPoint x="405" y="330" as="targetPoint" />
          </mxGeometry>
        </mxCell>
        <mxCell id="c_KtkY77ZZmK-J9CgblS-33" value="MakeReservation" style="ellipse;whiteSpace=wrap;html=1;" parent="1" vertex="1">
          <mxGeometry x="290" y="170" width="120" height="70" as="geometry" />
        </mxCell>
        <mxCell id="c_KtkY77ZZmK-J9CgblS-34" value="byPhone" style="ellipse;whiteSpace=wrap;html=1;" parent="1" vertex="1">
          <mxGeometry x="250" y="40" width="130" height="70" as="geometry" />
        </mxCell>
        <mxCell id="c_KtkY77ZZmK-J9CgblS-35" value="webInterafce" style="ellipse;whiteSpace=wrap;html=1;" parent="1" vertex="1">
          <mxGeometry x="390" y="60" width="120" height="60" as="geometry" />
        </mxCell>
        <mxCell id="c_KtkY77ZZmK-J9CgblS-36" value="mobileApp" style="ellipse;whiteSpace=wrap;html=1;" parent="1" vertex="1">
          <mxGeometry x="460" y="140" width="120" height="60" as="geometry" />
        </mxCell>
        <mxCell id="c_KtkY77ZZmK-J9CgblS-38" value="onlinePayment" style="ellipse;whiteSpace=wrap;html=1;" parent="1" vertex="1">
          <mxGeometry x="572.5" y="250" width="120" height="60" as="geometry" />
        </mxCell>
        <mxCell id="c_KtkY77ZZmK-J9CgblS-39" value="BankServer" style="shape=umlActor;verticalLabelPosition=bottom;verticalAlign=top;html=1;outlineConnect=0;" parent="1" vertex="1">
          <mxGeometry x="820" y="160" width="30" height="60" as="geometry" />
        </mxCell>
        <mxCell id="c_KtkY77ZZmK-J9CgblS-40" value="" style="endArrow=block;html=1;rounded=0;exitX=0.454;exitY=0.986;exitDx=0;exitDy=0;exitPerimeter=0;entryX=0.5;entryY=0;entryDx=0;entryDy=0;endFill=0;" parent="1" source="c_KtkY77ZZmK-J9CgblS-34" target="c_KtkY77ZZmK-J9CgblS-33" edge="1">
          <mxGeometry width="50" height="50" relative="1" as="geometry">
            <mxPoint x="670" y="320" as="sourcePoint" />
            <mxPoint x="720" y="270" as="targetPoint" />
          </mxGeometry>
        </mxCell>
        <mxCell id="c_KtkY77ZZmK-J9CgblS-41" value="" style="endArrow=block;html=1;rounded=0;exitX=0.383;exitY=0.95;exitDx=0;exitDy=0;exitPerimeter=0;entryX=0.767;entryY=0.043;entryDx=0;entryDy=0;endFill=0;entryPerimeter=0;" parent="1" source="c_KtkY77ZZmK-J9CgblS-35" target="c_KtkY77ZZmK-J9CgblS-33" edge="1">
          <mxGeometry width="50" height="50" relative="1" as="geometry">
            <mxPoint x="340" y="140" as="sourcePoint" />
            <mxPoint x="381" y="201" as="targetPoint" />
          </mxGeometry>
        </mxCell>
        <mxCell id="c_KtkY77ZZmK-J9CgblS-42" value="" style="endArrow=block;html=1;rounded=0;exitX=0;exitY=0.5;exitDx=0;exitDy=0;entryX=1;entryY=0.5;entryDx=0;entryDy=0;endFill=0;" parent="1" source="c_KtkY77ZZmK-J9CgblS-36" target="c_KtkY77ZZmK-J9CgblS-33" edge="1">
          <mxGeometry width="50" height="50" relative="1" as="geometry">
            <mxPoint x="474" y="160" as="sourcePoint" />
            <mxPoint x="410" y="206" as="targetPoint" />
          </mxGeometry>
        </mxCell>
        <mxCell id="c_KtkY77ZZmK-J9CgblS-43" value="&amp;lt;&amp;lt;include&amp;gt;&amp;gt;" style="html=1;verticalAlign=bottom;labelBackgroundColor=none;endArrow=open;endFill=0;dashed=1;rounded=0;exitX=0.5;exitY=1;exitDx=0;exitDy=0;entryX=0;entryY=0.5;entryDx=0;entryDy=0;" parent="1" source="c_KtkY77ZZmK-J9CgblS-33" target="c_KtkY77ZZmK-J9CgblS-38" edge="1">
          <mxGeometry width="160" relative="1" as="geometry">
            <mxPoint x="620" y="290" as="sourcePoint" />
            <mxPoint x="780" y="290" as="targetPoint" />
          </mxGeometry>
        </mxCell>
        <mxCell id="c_KtkY77ZZmK-J9CgblS-44" value="ReservationAmount &amp;gt; 5000 DH" style="shape=note;whiteSpace=wrap;html=1;backgroundOutline=1;darkOpacity=0.05;size=18;" parent="1" vertex="1">
          <mxGeometry x="343" y="270" width="165" height="60" as="geometry" />
        </mxCell>
        <mxCell id="c_KtkY77ZZmK-J9CgblS-45" value="verifyAndValidate" style="ellipse;whiteSpace=wrap;html=1;" parent="1" vertex="1">
          <mxGeometry x="547.5" y="350" width="120" height="60" as="geometry" />
        </mxCell>
        <mxCell id="c_KtkY77ZZmK-J9CgblS-46" value="" style="endArrow=none;html=1;rounded=0;exitX=0.5;exitY=0.5;exitDx=0;exitDy=0;exitPerimeter=0;entryX=0;entryY=0.5;entryDx=0;entryDy=0;" parent="1" source="c_KtkY77ZZmK-J9CgblS-6" target="c_KtkY77ZZmK-J9CgblS-33" edge="1">
          <mxGeometry width="50" height="50" relative="1" as="geometry">
            <mxPoint x="670" y="320" as="sourcePoint" />
            <mxPoint x="720" y="270" as="targetPoint" />
          </mxGeometry>
        </mxCell>
        <mxCell id="c_KtkY77ZZmK-J9CgblS-47" value="" style="endArrow=none;html=1;rounded=0;exitX=1;exitY=0.5;exitDx=0;exitDy=0;" parent="1" source="c_KtkY77ZZmK-J9CgblS-45" target="c_KtkY77ZZmK-J9CgblS-39" edge="1">
          <mxGeometry width="50" height="50" relative="1" as="geometry">
            <mxPoint x="965" y="302.5" as="sourcePoint" />
            <mxPoint x="1140" y="257.5" as="targetPoint" />
          </mxGeometry>
        </mxCell>
        <mxCell id="c_KtkY77ZZmK-J9CgblS-48" value="" style="rounded=0;whiteSpace=wrap;html=1;" parent="1" vertex="1">
          <mxGeometry x="225" y="500" width="565" height="880" as="geometry" />
        </mxCell>
        <mxCell id="c_KtkY77ZZmK-J9CgblS-49" value="billing" style="text;html=1;align=center;verticalAlign=middle;whiteSpace=wrap;rounded=0;" parent="1" vertex="1">
          <mxGeometry x="422.5" y="520" width="170" height="30" as="geometry" />
        </mxCell>
        <mxCell id="c_KtkY77ZZmK-J9CgblS-50" value="Receptionist" style="shape=umlActor;verticalLabelPosition=bottom;verticalAlign=top;html=1;outlineConnect=0;" parent="1" vertex="1">
          <mxGeometry x="100" y="740" width="30" height="60" as="geometry" />
        </mxCell>
        <mxCell id="c_KtkY77ZZmK-J9CgblS-51" value="SearchAvailable" style="ellipse;whiteSpace=wrap;html=1;" parent="1" vertex="1">
          <mxGeometry x="360" y="642.5" width="120" height="60" as="geometry" />
        </mxCell>
        <mxCell id="c_KtkY77ZZmK-J9CgblS-52" value="verifyExistingReservation" style="ellipse;whiteSpace=wrap;html=1;" parent="1" vertex="1">
          <mxGeometry x="260" y="762.5" width="160" height="70" as="geometry" />
        </mxCell>
        <mxCell id="c_KtkY77ZZmK-J9CgblS-53" value="performCheckIn" style="ellipse;whiteSpace=wrap;html=1;" parent="1" vertex="1">
          <mxGeometry x="427.5" y="702.5" width="120" height="60" as="geometry" />
        </mxCell>
        <mxCell id="c_KtkY77ZZmK-J9CgblS-54" value="createStayRecord" style="ellipse;whiteSpace=wrap;html=1;" parent="1" vertex="1">
          <mxGeometry x="580" y="762.5" width="120" height="60" as="geometry" />
        </mxCell>
        <mxCell id="c_KtkY77ZZmK-J9CgblS-55" value="changeRoomStatus" style="ellipse;whiteSpace=wrap;html=1;" parent="1" vertex="1">
          <mxGeometry x="580" y="642.5" width="140" height="67.5" as="geometry" />
        </mxCell>
        <mxCell id="c_KtkY77ZZmK-J9CgblS-56" value="&amp;lt;&amp;lt;include&amp;gt;&amp;gt;" style="html=1;verticalAlign=bottom;labelBackgroundColor=none;endArrow=open;endFill=0;dashed=1;rounded=0;exitX=1;exitY=0;exitDx=0;exitDy=0;entryX=0;entryY=0.5;entryDx=0;entryDy=0;" parent="1" source="c_KtkY77ZZmK-J9CgblS-53" target="c_KtkY77ZZmK-J9CgblS-55" edge="1">
          <mxGeometry width="160" relative="1" as="geometry">
            <mxPoint x="520" y="330" as="sourcePoint" />
            <mxPoint x="743" y="370" as="targetPoint" />
          </mxGeometry>
        </mxCell>
        <mxCell id="c_KtkY77ZZmK-J9CgblS-57" value="&amp;lt;&amp;lt;include&amp;gt;&amp;gt;" style="html=1;verticalAlign=bottom;labelBackgroundColor=none;endArrow=open;endFill=0;dashed=1;rounded=0;exitX=0.796;exitY=0.908;exitDx=0;exitDy=0;entryX=0;entryY=0.5;entryDx=0;entryDy=0;exitPerimeter=0;" parent="1" source="c_KtkY77ZZmK-J9CgblS-53" target="c_KtkY77ZZmK-J9CgblS-54" edge="1">
          <mxGeometry width="160" relative="1" as="geometry">
            <mxPoint x="580" y="788" as="sourcePoint" />
            <mxPoint x="630" y="750" as="targetPoint" />
          </mxGeometry>
        </mxCell>
        <mxCell id="c_KtkY77ZZmK-J9CgblS-58" value="" style="endArrow=none;html=1;rounded=0;entryX=0;entryY=0.5;entryDx=0;entryDy=0;" parent="1" source="c_KtkY77ZZmK-J9CgblS-50" target="c_KtkY77ZZmK-J9CgblS-51" edge="1">
          <mxGeometry width="50" height="50" relative="1" as="geometry">
            <mxPoint x="260" y="715" as="sourcePoint" />
            <mxPoint x="435" y="670" as="targetPoint" />
          </mxGeometry>
        </mxCell>
        <mxCell id="c_KtkY77ZZmK-J9CgblS-59" value="" style="endArrow=none;html=1;rounded=0;entryX=0;entryY=0.5;entryDx=0;entryDy=0;" parent="1" source="c_KtkY77ZZmK-J9CgblS-50" target="c_KtkY77ZZmK-J9CgblS-53" edge="1">
          <mxGeometry width="50" height="50" relative="1" as="geometry">
            <mxPoint x="250" y="790" as="sourcePoint" />
            <mxPoint x="450" y="660" as="targetPoint" />
          </mxGeometry>
        </mxCell>
        <mxCell id="c_KtkY77ZZmK-J9CgblS-60" value="" style="endArrow=none;html=1;rounded=0;" parent="1" source="c_KtkY77ZZmK-J9CgblS-50" target="c_KtkY77ZZmK-J9CgblS-52" edge="1">
          <mxGeometry width="50" height="50" relative="1" as="geometry">
            <mxPoint x="250" y="810" as="sourcePoint" />
            <mxPoint x="450" y="680" as="targetPoint" />
          </mxGeometry>
        </mxCell>
        <mxCell id="c_KtkY77ZZmK-J9CgblS-61" value="Client" style="shape=umlActor;verticalLabelPosition=bottom;verticalAlign=top;html=1;outlineConnect=0;" parent="1" vertex="1">
          <mxGeometry x="100" y="960" width="30" height="60" as="geometry" />
        </mxCell>
        <mxCell id="c_KtkY77ZZmK-J9CgblS-62" value="additionalServices" style="ellipse;whiteSpace=wrap;html=1;" parent="1" vertex="1">
          <mxGeometry x="305" y="1000" width="120" height="60" as="geometry" />
        </mxCell>
        <mxCell id="c_KtkY77ZZmK-J9CgblS-63" value="breakfast" style="ellipse;whiteSpace=wrap;html=1;" parent="1" vertex="1">
          <mxGeometry x="442.5" y="950" width="130" height="50" as="geometry" />
        </mxCell>
        <mxCell id="c_KtkY77ZZmK-J9CgblS-65" value="stayInvoice" style="ellipse;whiteSpace=wrap;html=1;" parent="1" vertex="1">
          <mxGeometry x="350" y="860" width="120" height="60" as="geometry" />
        </mxCell>
        <mxCell id="c_KtkY77ZZmK-J9CgblS-66" value="&amp;lt;&amp;lt;include&amp;gt;&amp;gt;" style="html=1;verticalAlign=bottom;labelBackgroundColor=none;endArrow=open;endFill=0;dashed=1;rounded=0;exitX=0.6;exitY=0.083;exitDx=0;exitDy=0;entryX=0.5;entryY=1;entryDx=0;entryDy=0;exitPerimeter=0;" parent="1" source="c_KtkY77ZZmK-J9CgblS-65" target="c_KtkY77ZZmK-J9CgblS-53" edge="1">
          <mxGeometry width="160" relative="1" as="geometry">
            <mxPoint x="550" y="780" as="sourcePoint" />
            <mxPoint x="607" y="816" as="targetPoint" />
          </mxGeometry>
        </mxCell>
        <mxCell id="c_KtkY77ZZmK-J9CgblS-67" value="" style="endArrow=none;html=1;rounded=0;entryX=0;entryY=0.5;entryDx=0;entryDy=0;" parent="1" source="c_KtkY77ZZmK-J9CgblS-50" target="c_KtkY77ZZmK-J9CgblS-65" edge="1">
          <mxGeometry width="50" height="50" relative="1" as="geometry">
            <mxPoint x="170" y="770" as="sourcePoint" />
            <mxPoint x="303" y="786" as="targetPoint" />
          </mxGeometry>
        </mxCell>
        <mxCell id="c_KtkY77ZZmK-J9CgblS-68" value="&amp;lt;&amp;lt;include&amp;gt;&amp;gt;" style="html=1;verticalAlign=bottom;labelBackgroundColor=none;endArrow=open;endFill=0;dashed=1;rounded=0;exitX=0.5;exitY=0;exitDx=0;exitDy=0;entryX=0.5;entryY=1;entryDx=0;entryDy=0;" parent="1" source="c_KtkY77ZZmK-J9CgblS-62" target="c_KtkY77ZZmK-J9CgblS-65" edge="1">
          <mxGeometry width="160" relative="1" as="geometry">
            <mxPoint x="440" y="932" as="sourcePoint" />
            <mxPoint x="506" y="830" as="targetPoint" />
          </mxGeometry>
        </mxCell>
        <mxCell id="c_KtkY77ZZmK-J9CgblS-69" value="" style="endArrow=block;html=1;rounded=0;exitX=0;exitY=0.5;exitDx=0;exitDy=0;entryX=1;entryY=0;entryDx=0;entryDy=0;endFill=0;" parent="1" source="c_KtkY77ZZmK-J9CgblS-63" target="c_KtkY77ZZmK-J9CgblS-62" edge="1">
          <mxGeometry width="50" height="50" relative="1" as="geometry">
            <mxPoint x="480" y="1000" as="sourcePoint" />
            <mxPoint x="430" y="1035" as="targetPoint" />
          </mxGeometry>
        </mxCell>
        <mxCell id="c_KtkY77ZZmK-J9CgblS-71" value="Lunch" style="ellipse;whiteSpace=wrap;html=1;" parent="1" vertex="1">
          <mxGeometry x="462.5" y="1020" width="130" height="50" as="geometry" />
        </mxCell>
        <mxCell id="c_KtkY77ZZmK-J9CgblS-72" value="Dinner" style="ellipse;whiteSpace=wrap;html=1;" parent="1" vertex="1">
          <mxGeometry x="427.5" y="1080" width="130" height="50" as="geometry" />
        </mxCell>
        <mxCell id="c_KtkY77ZZmK-J9CgblS-73" value="" style="endArrow=block;html=1;rounded=0;exitX=0;exitY=0.5;exitDx=0;exitDy=0;entryX=1;entryY=0.5;entryDx=0;entryDy=0;endFill=0;" parent="1" source="c_KtkY77ZZmK-J9CgblS-71" target="c_KtkY77ZZmK-J9CgblS-62" edge="1">
          <mxGeometry width="50" height="50" relative="1" as="geometry">
            <mxPoint x="466" y="1050" as="sourcePoint" />
            <mxPoint x="430" y="1084" as="targetPoint" />
          </mxGeometry>
        </mxCell>
        <mxCell id="c_KtkY77ZZmK-J9CgblS-74" value="" style="endArrow=block;html=1;rounded=0;exitX=0.027;exitY=0.34;exitDx=0;exitDy=0;entryX=0.575;entryY=1;entryDx=0;entryDy=0;endFill=0;entryPerimeter=0;exitPerimeter=0;" parent="1" source="c_KtkY77ZZmK-J9CgblS-72" target="c_KtkY77ZZmK-J9CgblS-62" edge="1">
          <mxGeometry width="50" height="50" relative="1" as="geometry">
            <mxPoint x="480" y="1045" as="sourcePoint" />
            <mxPoint x="450" y="1040" as="targetPoint" />
          </mxGeometry>
        </mxCell>
        <mxCell id="c_KtkY77ZZmK-J9CgblS-75" value="" style="endArrow=none;html=1;rounded=0;" parent="1" source="c_KtkY77ZZmK-J9CgblS-61" target="c_KtkY77ZZmK-J9CgblS-62" edge="1">
          <mxGeometry width="50" height="50" relative="1" as="geometry">
            <mxPoint x="230" y="830" as="sourcePoint" />
            <mxPoint x="450" y="942" as="targetPoint" />
          </mxGeometry>
        </mxCell>
        <mxCell id="c_KtkY77ZZmK-J9CgblS-76" value="Cashier" style="shape=umlActor;verticalLabelPosition=bottom;verticalAlign=top;html=1;outlineConnect=0;" parent="1" vertex="1">
          <mxGeometry x="100" y="1200" width="30" height="60" as="geometry" />
        </mxCell>
        <mxCell id="c_KtkY77ZZmK-J9CgblS-77" value="recordConsumption" style="ellipse;whiteSpace=wrap;html=1;" parent="1" vertex="1">
          <mxGeometry x="335" y="1240" width="120" height="60" as="geometry" />
        </mxCell>
        <mxCell id="c_KtkY77ZZmK-J9CgblS-79" value="" style="endArrow=none;html=1;rounded=0;entryX=0;entryY=0.5;entryDx=0;entryDy=0;" parent="1" source="c_KtkY77ZZmK-J9CgblS-76" target="c_KtkY77ZZmK-J9CgblS-77" edge="1">
          <mxGeometry width="50" height="50" relative="1" as="geometry">
            <mxPoint x="220" y="1020" as="sourcePoint" />
            <mxPoint x="398" y="1049" as="targetPoint" />
          </mxGeometry>
        </mxCell>
        <mxCell id="c_KtkY77ZZmK-J9CgblS-80" value="Time" style="shape=umlActor;verticalLabelPosition=bottom;verticalAlign=top;html=1;outlineConnect=0;" parent="1" vertex="1">
          <mxGeometry x="880" y="1130" width="30" height="60" as="geometry" />
        </mxCell>
        <mxCell id="c_KtkY77ZZmK-J9CgblS-81" value="AddToInvoice" style="ellipse;whiteSpace=wrap;html=1;" parent="1" vertex="1">
          <mxGeometry x="572.5" y="1200" width="120" height="60" as="geometry" />
        </mxCell>
        <mxCell id="c_KtkY77ZZmK-J9CgblS-82" value="" style="endArrow=none;html=1;rounded=0;entryX=0.5;entryY=0.5;entryDx=0;entryDy=0;entryPerimeter=0;" parent="1" source="c_KtkY77ZZmK-J9CgblS-81" target="c_KtkY77ZZmK-J9CgblS-80" edge="1">
          <mxGeometry width="50" height="50" relative="1" as="geometry">
            <mxPoint x="180" y="1230" as="sourcePoint" />
            <mxPoint x="350" y="1239" as="targetPoint" />
          </mxGeometry>
        </mxCell>
        <mxCell id="c_KtkY77ZZmK-J9CgblS-83" value="" style="rounded=0;whiteSpace=wrap;html=1;" parent="1" vertex="1">
          <mxGeometry x="225" y="1390" width="565" height="600" as="geometry" />
        </mxCell>
        <mxCell id="c_KtkY77ZZmK-J9CgblS-84" value="performCheckOut" style="ellipse;whiteSpace=wrap;html=1;" parent="1" vertex="1">
          <mxGeometry x="322.5" y="550" width="120" height="60" as="geometry" />
        </mxCell>
        <mxCell id="c_KtkY77ZZmK-J9CgblS-85" value="" style="endArrow=none;html=1;rounded=0;entryX=0.038;entryY=0.617;entryDx=0;entryDy=0;entryPerimeter=0;" parent="1" source="c_KtkY77ZZmK-J9CgblS-50" target="c_KtkY77ZZmK-J9CgblS-84" edge="1">
          <mxGeometry width="50" height="50" relative="1" as="geometry">
            <mxPoint x="320" y="771" as="sourcePoint" />
            <mxPoint x="550" y="680" as="targetPoint" />
          </mxGeometry>
        </mxCell>
        <mxCell id="c_KtkY77ZZmK-J9CgblS-86" value="managingRoom" style="text;html=1;align=center;verticalAlign=middle;whiteSpace=wrap;rounded=0;" parent="1" vertex="1">
          <mxGeometry x="407.5" y="1410" width="170" height="30" as="geometry" />
        </mxCell>
      </root>
    </mxGraphModel>
  </diagram>
  <diagram name="Hospital - Reception" id="FikDlIBmy7CB5HOo17jk">
    <mxGraphModel dx="1178" dy="646" grid="1" gridSize="10" guides="1" tooltips="1" connect="1" arrows="1" fold="1" page="1" pageScale="1" pageWidth="827" pageHeight="1169">
      <root>
        <mxCell id="0" />
        <mxCell id="1" parent="0" />
        <!-- Actors -->
        <mxCell id="a-receptionist" value="Receptionist" style="shape=umlActor;verticalLabelPosition=bottom;verticalAlign=top;html=1;" vertex="1" parent="1">
          <mxGeometry x="40" y="40" width="40" height="80" as="geometry" />
        </mxCell>
        <mxCell id="a-patient" value="Patient" style="shape=umlActor;verticalLabelPosition=bottom;verticalAlign=top;html=1;" vertex="1" parent="1">
          <mxGeometry x="40" y="160" width="40" height="80" as="geometry" />
        </mxCell>
        <mxCell id="a-insurer" value="Insurance Provider" style="shape=umlActor;verticalLabelPosition=bottom;verticalAlign=top;html=1;" vertex="1" parent="1">
          <mxGeometry x="40" y="280" width="40" height="80" as="geometry" />
        </mxCell>
        <mxCell id="a-ward" value="Ward / Bed Mgmt" style="shape=umlActor;verticalLabelPosition=bottom;verticalAlign=top;html=1;" vertex="1" parent="1">
          <mxGeometry x="40" y="400" width="40" height="80" as="geometry" />
        </mxCell>
        <!-- Use cases -->
        <mxCell id="uc-schedule-appt" value="Schedule Appointment" style="ellipse;whiteSpace=wrap;html=1;" vertex="1" parent="1">
          <mxGeometry x="160" y="20" width="170" height="50" as="geometry" />
        </mxCell>
        <mxCell id="uc-schedule-adm" value="Schedule Admission" style="ellipse;whiteSpace=wrap;html=1;" vertex="1" parent="1">
          <mxGeometry x="360" y="20" width="170" height="50" as="geometry" />
        </mxCell>
        <mxCell id="uc-collect-info" value="Collect Patient Info" style="ellipse;whiteSpace=wrap;html=1;" vertex="1" parent="1">
          <mxGeometry x="160" y="100" width="170" height="50" as="geometry" />
        </mxCell>
        <mxCell id="uc-register" value="Patient Registration" style="ellipse;whiteSpace=wrap;html=1;" vertex="1" parent="1">
          <mxGeometry x="360" y="100" width="170" height="50" as="geometry" />
        </mxCell>
        <mxCell id="uc-admit" value="Admit Patient" style="ellipse;whiteSpace=wrap;html=1;" vertex="1" parent="1">
          <mxGeometry x="160" y="180" width="170" height="50" as="geometry" />
        </mxCell>
        <mxCell id="uc-assign-bed" value="Assign Bed" style="ellipse;whiteSpace=wrap;html=1;" vertex="1" parent="1">
          <mxGeometry x="360" y="180" width="150" height="50" as="geometry" />
        </mxCell>
        <mxCell id="uc-file-claim" value="File Insurance Claim" style="ellipse;whiteSpace=wrap;html=1;" vertex="1" parent="1">
          <mxGeometry x="160" y="260" width="170" height="50" as="geometry" />
        </mxCell>
        <mxCell id="uc-file-report" value="File Medical Report" style="ellipse;whiteSpace=wrap;html=1;" vertex="1" parent="1">
          <mxGeometry x="360" y="260" width="170" height="50" as="geometry" />
        </mxCell>
        <!-- Edges: actors to use cases -->
        <mxCell id="e-patient-appt" style="edgeStyle=orthogonalEdgeStyle;rounded=0;" edge="1" parent="1" source="a-patient" target="uc-schedule-appt">
          <mxGeometry relative="1" as="geometry" />
        </mxCell>
        <mxCell id="e-recep-appt" style="edgeStyle=orthogonalEdgeStyle;rounded=0;" edge="1" parent="1" source="a-receptionist" target="uc-schedule-appt">
          <mxGeometry relative="1" as="geometry" />
        </mxCell>
        <mxCell id="e-recep-adm" style="edgeStyle=orthogonalEdgeStyle;rounded=0;" edge="1" parent="1" source="a-receptionist" target="uc-schedule-adm">
          <mxGeometry relative="1" as="geometry" />
        </mxCell>
        <mxCell id="e-recep-collect" style="edgeStyle=orthogonalEdgeStyle;rounded=0;" edge="1" parent="1" source="a-receptionist" target="uc-collect-info">
          <mxGeometry relative="1" as="geometry" />
        </mxCell>
        <mxCell id="e-recep-register" style="edgeStyle=orthogonalEdgeStyle;rounded=0;" edge="1" parent="1" source="a-receptionist" target="uc-register">
          <mxGeometry relative="1" as="geometry" />
        </mxCell>
        <mxCell id="e-recep-admit" style="edgeStyle=orthogonalEdgeStyle;rounded=0;" edge="1" parent="1" source="a-receptionist" target="uc-admit">
          <mxGeometry relative="1" as="geometry" />
        </mxCell>
        <mxCell id="e-ward-assign" style="edgeStyle=orthogonalEdgeStyle;rounded=0;" edge="1" parent="1" source="a-ward" target="uc-assign-bed">
          <mxGeometry relative="1" as="geometry" />
        </mxCell>
        <mxCell id="e-recep-assign" style="edgeStyle=orthogonalEdgeStyle;rounded=0;" edge="1" parent="1" source="a-receptionist" target="uc-assign-bed">
          <mxGeometry relative="1" as="geometry" />
        </mxCell>
        <mxCell id="e-recep-claim" style="edgeStyle=orthogonalEdgeStyle;rounded=0;" edge="1" parent="1" source="a-receptionist" target="uc-file-claim">
          <mxGeometry relative="1" as="geometry" />
        </mxCell>
        <mxCell id="e-insurer-claim" style="edgeStyle=orthogonalEdgeStyle;rounded=0;" edge="1" parent="1" source="a-insurer" target="uc-file-claim">
          <mxGeometry relative="1" as="geometry" />
        </mxCell>
        <mxCell id="e-recep-report" style="edgeStyle=orthogonalEdgeStyle;rounded=0;" edge="1" parent="1" source="a-receptionist" target="uc-file-report">
          <mxGeometry relative="1" as="geometry" />
        </mxCell>
        <!-- Precondition annotation: Registration -> Admit -->
        <mxCell id="note-precondition" value="Registration is a precondition for Admit" style="text;html=1;strokeColor=none;align=left;verticalAlign=top;fontStyle=2" vertex="1" parent="1">
          <mxGeometry x="160" y="240" width="370" height="30" as="geometry" />
        </mxCell>
      </root>
    </mxGraphModel>
  </diagram>
  <diagram name="Gmail - Use Cases" id="FNHf5cEcrCxL0LVNo8fq">
    <mxGraphModel dx="1426" dy="841" grid="1" gridSize="10" guides="1" tooltips="1" connect="1" arrows="1" fold="1" page="1" pageScale="1" pageWidth="850" pageHeight="1100" math="0" shadow="0">
      <root>
        <mxCell id="0" />
        <mxCell id="1" parent="0" />
        <mxCell id="c_KtkY77ZZmK-J9CgblS-4" value="" style="rounded=0;whiteSpace=wrap;html=1;" vertex="1" parent="1">
          <mxGeometry x="225" y="15" width="815" height="600" as="geometry" />
        </mxCell>
        <mxCell id="c_KtkY77ZZmK-J9CgblS-5" value="Hospital Reception System" style="text;html=1;align=center;verticalAlign=middle;whiteSpace=wrap;rounded=0;" vertex="1" parent="1">
          <mxGeometry x="560" y="30" width="170" height="30" as="geometry" />
        </mxCell>
        <mxCell id="c_KtkY77ZZmK-J9CgblS-6" value="Receptionist" style="shape=umlActor;verticalLabelPosition=bottom;verticalAlign=top;html=1;outlineConnect=0;" vertex="1" parent="1">
          <mxGeometry x="100" y="220" width="30" height="60" as="geometry" />
        </mxCell>
        <mxCell id="c_KtkY77ZZmK-J9CgblS-8" value="ScheduleAppointment" style="ellipse;whiteSpace=wrap;html=1;" vertex="1" parent="1">
          <mxGeometry x="310" y="80" width="190" height="70" as="geometry" />
        </mxCell>
        <mxCell id="c_KtkY77ZZmK-J9CgblS-9" value="ScheduleAdmission" style="ellipse;whiteSpace=wrap;html=1;" vertex="1" parent="1">
          <mxGeometry x="320" y="330" width="190" height="70" as="geometry" />
        </mxCell>
        <mxCell id="c_KtkY77ZZmK-J9CgblS-10" value="CollectInfo" style="ellipse;whiteSpace=wrap;html=1;" vertex="1" parent="1">
          <mxGeometry x="310" y="200" width="190" height="70" as="geometry" />
        </mxCell>
        <mxCell id="c_KtkY77ZZmK-J9CgblS-11" value="RegisterPatient" style="ellipse;whiteSpace=wrap;html=1;" vertex="1" parent="1">
          <mxGeometry x="230" y="490" width="190" height="70" as="geometry" />
        </mxCell>
        <mxCell id="c_KtkY77ZZmK-J9CgblS-12" value="InpatientAdmission" style="ellipse;whiteSpace=wrap;html=1;" vertex="1" parent="1">
          <mxGeometry x="550" y="280" width="190" height="70" as="geometry" />
        </mxCell>
        <mxCell id="c_KtkY77ZZmK-J9CgblS-13" value="OutpatientAdmission" style="ellipse;whiteSpace=wrap;html=1;" vertex="1" parent="1">
          <mxGeometry x="520" y="390" width="190" height="70" as="geometry" />
        </mxCell>
        <mxCell id="c_KtkY77ZZmK-J9CgblS-14" value="AssignBed" style="ellipse;whiteSpace=wrap;html=1;" vertex="1" parent="1">
          <mxGeometry x="660" y="150" width="190" height="70" as="geometry" />
        </mxCell>
        <mxCell id="c_KtkY77ZZmK-J9CgblS-15" value="FileInsuranceClaim" style="ellipse;whiteSpace=wrap;html=1;" vertex="1" parent="1">
          <mxGeometry x="800" y="240" width="190" height="70" as="geometry" />
        </mxCell>
        <mxCell id="c_KtkY77ZZmK-J9CgblS-16" value="FileMedicalReport" style="ellipse;whiteSpace=wrap;html=1;" vertex="1" parent="1">
          <mxGeometry x="820" y="360" width="190" height="70" as="geometry" />
        </mxCell>
        <mxCell id="c_KtkY77ZZmK-J9CgblS-17" value="&amp;lt;&amp;lt;include&amp;gt;&amp;gt;" style="html=1;verticalAlign=bottom;labelBackgroundColor=none;endArrow=open;endFill=0;dashed=1;rounded=0;entryX=0.663;entryY=0;entryDx=0;entryDy=0;entryPerimeter=0;" edge="1" parent="1" source="c_KtkY77ZZmK-J9CgblS-9" target="c_KtkY77ZZmK-J9CgblS-11">
          <mxGeometry width="160" relative="1" as="geometry">
            <mxPoint x="250" y="390" as="sourcePoint" />
            <mxPoint x="410" y="390" as="targetPoint" />
          </mxGeometry>
        </mxCell>
        <mxCell id="c_KtkY77ZZmK-J9CgblS-19" value="" style="endArrow=block;html=1;rounded=0;endFill=0;" edge="1" parent="1" source="c_KtkY77ZZmK-J9CgblS-12" target="c_KtkY77ZZmK-J9CgblS-9">
          <mxGeometry width="50" height="50" relative="1" as="geometry">
            <mxPoint x="300" y="420" as="sourcePoint" />
            <mxPoint x="350" y="370" as="targetPoint" />
          </mxGeometry>
        </mxCell>
        <mxCell id="c_KtkY77ZZmK-J9CgblS-20" value="" style="endArrow=block;html=1;rounded=0;entryX=0.911;entryY=0.729;entryDx=0;entryDy=0;entryPerimeter=0;endFill=0;" edge="1" parent="1" source="c_KtkY77ZZmK-J9CgblS-13" target="c_KtkY77ZZmK-J9CgblS-9">
          <mxGeometry width="50" height="50" relative="1" as="geometry">
            <mxPoint x="702" y="340" as="sourcePoint" />
            <mxPoint x="560" y="398" as="targetPoint" />
          </mxGeometry>
        </mxCell>
        <mxCell id="c_KtkY77ZZmK-J9CgblS-21" value="&amp;lt;&amp;lt;include&amp;gt;&amp;gt;" style="html=1;verticalAlign=bottom;labelBackgroundColor=none;endArrow=open;endFill=0;dashed=1;rounded=0;exitX=0.5;exitY=0;exitDx=0;exitDy=0;" edge="1" parent="1" source="c_KtkY77ZZmK-J9CgblS-12" target="c_KtkY77ZZmK-J9CgblS-14">
          <mxGeometry width="160" relative="1" as="geometry">
            <mxPoint x="413" y="460" as="sourcePoint" />
            <mxPoint x="370" y="551" as="targetPoint" />
          </mxGeometry>
        </mxCell>
        <mxCell id="c_KtkY77ZZmK-J9CgblS-22" value="&amp;lt;&amp;lt;exclude&amp;gt;&amp;gt;" style="html=1;verticalAlign=bottom;labelBackgroundColor=none;endArrow=open;endFill=0;dashed=1;rounded=0;entryX=1;entryY=1;entryDx=0;entryDy=0;exitX=0.5;exitY=0;exitDx=0;exitDy=0;" edge="1" parent="1" source="c_KtkY77ZZmK-J9CgblS-16" target="c_KtkY77ZZmK-J9CgblS-12">
          <mxGeometry width="160" relative="1" as="geometry">
            <mxPoint x="483" y="510" as="sourcePoint" />
            <mxPoint x="440" y="601" as="targetPoint" />
          </mxGeometry>
        </mxCell>
        <mxCell id="c_KtkY77ZZmK-J9CgblS-23" value="&amp;lt;&amp;lt;exclude&amp;gt;&amp;gt;" style="html=1;verticalAlign=bottom;labelBackgroundColor=none;endArrow=open;endFill=0;dashed=1;rounded=0;entryX=1;entryY=0.5;entryDx=0;entryDy=0;" edge="1" parent="1" source="c_KtkY77ZZmK-J9CgblS-15" target="c_KtkY77ZZmK-J9CgblS-12">
          <mxGeometry width="160" relative="1" as="geometry">
            <mxPoint x="540" y="840" as="sourcePoint" />
            <mxPoint x="780" y="510" as="targetPoint" />
          </mxGeometry>
        </mxCell>
        <mxCell id="c_KtkY77ZZmK-J9CgblS-24" value="" style="endArrow=none;html=1;rounded=0;entryX=0;entryY=0.5;entryDx=0;entryDy=0;" edge="1" parent="1" target="c_KtkY77ZZmK-J9CgblS-8">
          <mxGeometry width="50" height="50" relative="1" as="geometry">
            <mxPoint x="140" y="250" as="sourcePoint" />
            <mxPoint x="170" y="110" as="targetPoint" />
          </mxGeometry>
        </mxCell>
        <mxCell id="c_KtkY77ZZmK-J9CgblS-25" value="" style="endArrow=none;html=1;rounded=0;entryX=0;entryY=0.5;entryDx=0;entryDy=0;" edge="1" parent="1" target="c_KtkY77ZZmK-J9CgblS-9">
          <mxGeometry width="50" height="50" relative="1" as="geometry">
            <mxPoint x="140" y="260" as="sourcePoint" />
            <mxPoint x="380" y="260" as="targetPoint" />
          </mxGeometry>
        </mxCell>
        <mxCell id="c_KtkY77ZZmK-J9CgblS-26" value="&amp;lt;&amp;lt;exclude&amp;gt;&amp;gt;" style="html=1;verticalAlign=bottom;labelBackgroundColor=none;endArrow=open;endFill=0;dashed=1;rounded=0;entryX=0.468;entryY=0.957;entryDx=0;entryDy=0;entryPerimeter=0;exitX=0.5;exitY=0;exitDx=0;exitDy=0;" edge="1" parent="1" source="c_KtkY77ZZmK-J9CgblS-10" target="c_KtkY77ZZmK-J9CgblS-8">
          <mxGeometry width="160" relative="1" as="geometry">
            <mxPoint x="857" y="300" as="sourcePoint" />
            <mxPoint x="780" y="320" as="targetPoint" />
          </mxGeometry>
        </mxCell>
        <mxCell id="c_KtkY77ZZmK-J9CgblS-27" value="&amp;lt;&amp;lt;exclude&amp;gt;&amp;gt;" style="html=1;verticalAlign=bottom;labelBackgroundColor=none;endArrow=open;endFill=0;dashed=1;rounded=0;entryX=0.5;entryY=0;entryDx=0;entryDy=0;exitX=0.5;exitY=1;exitDx=0;exitDy=0;" edge="1" parent="1" source="c_KtkY77ZZmK-J9CgblS-10" target="c_KtkY77ZZmK-J9CgblS-9">
          <mxGeometry width="160" relative="1" as="geometry">
            <mxPoint x="486" y="306.5" as="sourcePoint" />
            <mxPoint x="480" y="243.5" as="targetPoint" />
          </mxGeometry>
        </mxCell>
        <mxCell id="c_KtkY77ZZmK-J9CgblS-28" value="" style="endArrow=none;html=1;rounded=0;entryX=0;entryY=0.5;entryDx=0;entryDy=0;" edge="1" parent="1" target="c_KtkY77ZZmK-J9CgblS-10">
          <mxGeometry width="50" height="50" relative="1" as="geometry">
            <mxPoint x="150" y="250" as="sourcePoint" />
            <mxPoint x="410" y="220" as="targetPoint" />
          </mxGeometry>
        </mxCell>
      </root>
    </mxGraphModel>
  </diagram>
  <diagram name="Hospital - Reception" id="IhIM61nx4xClStOTS7Dt">
    <mxGraphModel dx="1178" dy="646" grid="1" gridSize="10" guides="1" tooltips="1" connect="1" arrows="1" fold="1" page="1" pageScale="1" pageWidth="827" pageHeight="1169">
      <root>
        <mxCell id="0" />
        <mxCell id="1" parent="0" />
        <!-- Actors -->
        <mxCell id="a-receptionist" value="Receptionist" style="shape=umlActor;verticalLabelPosition=bottom;verticalAlign=top;html=1;" vertex="1" parent="1">
          <mxGeometry x="40" y="40" width="40" height="80" as="geometry" />
        </mxCell>
        <mxCell id="a-patient" value="Patient" style="shape=umlActor;verticalLabelPosition=bottom;verticalAlign=top;html=1;" vertex="1" parent="1">
          <mxGeometry x="40" y="160" width="40" height="80" as="geometry" />
        </mxCell>
        <mxCell id="a-insurer" value="Insurance Provider" style="shape=umlActor;verticalLabelPosition=bottom;verticalAlign=top;html=1;" vertex="1" parent="1">
          <mxGeometry x="40" y="280" width="40" height="80" as="geometry" />
        </mxCell>
        <mxCell id="a-ward" value="Ward / Bed Mgmt" style="shape=umlActor;verticalLabelPosition=bottom;verticalAlign=top;html=1;" vertex="1" parent="1">
          <mxGeometry x="40" y="400" width="40" height="80" as="geometry" />
        </mxCell>
        <!-- Use cases -->
        <mxCell id="uc-schedule-appt" value="Schedule Appointment" style="ellipse;whiteSpace=wrap;html=1;" vertex="1" parent="1">
          <mxGeometry x="160" y="20" width="170" height="50" as="geometry" />
        </mxCell>
        <mxCell id="uc-schedule-adm" value="Schedule Admission" style="ellipse;whiteSpace=wrap;html=1;" vertex="1" parent="1">
          <mxGeometry x="360" y="20" width="170" height="50" as="geometry" />
        </mxCell>
        <mxCell id="uc-collect-info" value="Collect Patient Info" style="ellipse;whiteSpace=wrap;html=1;" vertex="1" parent="1">
          <mxGeometry x="160" y="100" width="170" height="50" as="geometry" />
        </mxCell>
        <mxCell id="uc-register" value="Patient Registration" style="ellipse;whiteSpace=wrap;html=1;" vertex="1" parent="1">
          <mxGeometry x="360" y="100" width="170" height="50" as="geometry" />
        </mxCell>
        <mxCell id="uc-admit" value="Admit Patient" style="ellipse;whiteSpace=wrap;html=1;" vertex="1" parent="1">
          <mxGeometry x="160" y="180" width="170" height="50" as="geometry" />
        </mxCell>
        <mxCell id="uc-assign-bed" value="Assign Bed" style="ellipse;whiteSpace=wrap;html=1;" vertex="1" parent="1">
          <mxGeometry x="360" y="180" width="150" height="50" as="geometry" />
        </mxCell>
        <mxCell id="uc-file-claim" value="File Insurance Claim" style="ellipse;whiteSpace=wrap;html=1;" vertex="1" parent="1">
          <mxGeometry x="160" y="260" width="170" height="50" as="geometry" />
        </mxCell>
        <mxCell id="uc-file-report" value="File Medical Report" style="ellipse;whiteSpace=wrap;html=1;" vertex="1" parent="1">
          <mxGeometry x="360" y="260" width="170" height="50" as="geometry" />
        </mxCell>
        <!-- Edges: actors to use cases -->
        <mxCell id="e-patient-appt" style="edgeStyle=orthogonalEdgeStyle;rounded=0;" edge="1" parent="1" source="a-patient" target="uc-schedule-appt">
          <mxGeometry relative="1" as="geometry" />
        </mxCell>
        <mxCell id="e-recep-appt" style="edgeStyle=orthogonalEdgeStyle;rounded=0;" edge="1" parent="1" source="a-receptionist" target="uc-schedule-appt">
          <mxGeometry relative="1" as="geometry" />
        </mxCell>
        <mxCell id="e-recep-adm" style="edgeStyle=orthogonalEdgeStyle;rounded=0;" edge="1" parent="1" source="a-receptionist" target="uc-schedule-adm">
          <mxGeometry relative="1" as="geometry" />
        </mxCell>
        <mxCell id="e-recep-collect" style="edgeStyle=orthogonalEdgeStyle;rounded=0;" edge="1" parent="1" source="a-receptionist" target="uc-collect-info">
          <mxGeometry relative="1" as="geometry" />
        </mxCell>
        <mxCell id="e-recep-register" style="edgeStyle=orthogonalEdgeStyle;rounded=0;" edge="1" parent="1" source="a-receptionist" target="uc-register">
          <mxGeometry relative="1" as="geometry" />
        </mxCell>
        <mxCell id="e-recep-admit" style="edgeStyle=orthogonalEdgeStyle;rounded=0;" edge="1" parent="1" source="a-receptionist" target="uc-admit">
          <mxGeometry relative="1" as="geometry" />
        </mxCell>
        <mxCell id="e-ward-assign" style="edgeStyle=orthogonalEdgeStyle;rounded=0;" edge="1" parent="1" source="a-ward" target="uc-assign-bed">
          <mxGeometry relative="1" as="geometry" />
        </mxCell>
        <mxCell id="e-recep-assign" style="edgeStyle=orthogonalEdgeStyle;rounded=0;" edge="1" parent="1" source="a-receptionist" target="uc-assign-bed">
          <mxGeometry relative="1" as="geometry" />
        </mxCell>
        <mxCell id="e-recep-claim" style="edgeStyle=orthogonalEdgeStyle;rounded=0;" edge="1" parent="1" source="a-receptionist" target="uc-file-claim">
          <mxGeometry relative="1" as="geometry" />
        </mxCell>
        <mxCell id="e-insurer-claim" style="edgeStyle=orthogonalEdgeStyle;rounded=0;" edge="1" parent="1" source="a-insurer" target="uc-file-claim">
          <mxGeometry relative="1" as="geometry" />
        </mxCell>
        <mxCell id="e-recep-report" style="edgeStyle=orthogonalEdgeStyle;rounded=0;" edge="1" parent="1" source="a-receptionist" target="uc-file-report">
          <mxGeometry relative="1" as="geometry" />
        </mxCell>
        <!-- Precondition annotation: Registration -> Admit -->
        <mxCell id="note-precondition" value="Registration is a precondition for Admit" style="text;html=1;strokeColor=none;align=left;verticalAlign=top;fontStyle=2" vertex="1" parent="1">
          <mxGeometry x="160" y="240" width="370" height="30" as="geometry" />
        </mxCell>
      </root>
    </mxGraphModel>
  </diagram>
</mxfile>
